<mxfile host="Electron" modified="2024-05-19T12:14:36.482Z" agent="Mozilla/5.0 (Windows NT 10.0; Win64; x64) AppleWebKit/537.36 (KHTML, like Gecko) draw.io/24.2.5 Chrome/120.0.6099.109 Electron/28.1.0 Safari/537.36" etag="hdBy81tQSeOi_1tGd187" version="24.2.5" type="device">
  <diagram name="Страница — 1" id="j5XDwBJ5OkAraZFzUUUj">
    <mxGraphModel dx="858" dy="1518" grid="1" gridSize="10" guides="1" tooltips="1" connect="1" arrows="1" fold="1" page="1" pageScale="1" pageWidth="827" pageHeight="1169" math="0" shadow="0">
      <root>
        <mxCell id="0" />
        <mxCell id="1" parent="0" />
        <mxCell id="8BC_4oRkA2N3f7B9IZtx-1" value="CoreWindow" style="swimlane;fontStyle=1;align=center;verticalAlign=top;childLayout=stackLayout;horizontal=1;startSize=26;horizontalStack=0;resizeParent=1;resizeParentMax=0;resizeLast=0;collapsible=1;marginBottom=0;whiteSpace=wrap;html=1;" vertex="1" parent="1">
          <mxGeometry x="20" y="140" width="290" height="230" as="geometry" />
        </mxCell>
        <mxCell id="8BC_4oRkA2N3f7B9IZtx-2" value="- ui: Ui::CoreWindow*" style="text;strokeColor=none;fillColor=none;align=left;verticalAlign=top;spacingLeft=4;spacingRight=4;overflow=hidden;rotatable=0;points=[[0,0.5],[1,0.5]];portConstraint=eastwest;whiteSpace=wrap;html=1;" vertex="1" parent="8BC_4oRkA2N3f7B9IZtx-1">
          <mxGeometry y="26" width="290" height="26" as="geometry" />
        </mxCell>
        <mxCell id="8BC_4oRkA2N3f7B9IZtx-3" value="" style="line;strokeWidth=1;fillColor=none;align=left;verticalAlign=middle;spacingTop=-1;spacingLeft=3;spacingRight=3;rotatable=0;labelPosition=right;points=[];portConstraint=eastwest;strokeColor=inherit;" vertex="1" parent="8BC_4oRkA2N3f7B9IZtx-1">
          <mxGeometry y="52" width="290" height="8" as="geometry" />
        </mxCell>
        <mxCell id="8BC_4oRkA2N3f7B9IZtx-4" value="&lt;div&gt;+ CoreWindow(QWidget *parent = nullptr)&lt;/div&gt;&lt;div&gt;+ ~CoreWindow()&lt;/div&gt;&lt;div&gt;-&amp;nbsp; on_pushButton_create_new_clicked(): void&lt;/div&gt;&lt;div&gt;-&amp;nbsp; on_pushButton_open_redactor_clicked(): void&lt;/div&gt;&lt;div&gt;- on_pushButton_update_project_clicked(): void&lt;/div&gt;&lt;div&gt;- on_pushButton_directory_project_clicked(): void&lt;/div&gt;&lt;div&gt;- on_new_element_selected_project(): void&lt;/div&gt;&lt;div&gt;- on_pushButton_update_record_clicked(): void&lt;/div&gt;&lt;div&gt;- on_pushButton_directory_result_clicked(): void&lt;/div&gt;&lt;div&gt;- on_new_element_selected_record(): void&lt;/div&gt;&lt;div&gt;- on_action_start_testing_triggered(): void&lt;/div&gt;" style="text;strokeColor=none;fillColor=none;align=left;verticalAlign=top;spacingLeft=4;spacingRight=4;overflow=hidden;rotatable=0;points=[[0,0.5],[1,0.5]];portConstraint=eastwest;whiteSpace=wrap;html=1;" vertex="1" parent="8BC_4oRkA2N3f7B9IZtx-1">
          <mxGeometry y="60" width="290" height="170" as="geometry" />
        </mxCell>
        <mxCell id="8BC_4oRkA2N3f7B9IZtx-5" value="TestCreatorWindow" style="swimlane;fontStyle=1;align=center;verticalAlign=top;childLayout=stackLayout;horizontal=1;startSize=26;horizontalStack=0;resizeParent=1;resizeParentMax=0;resizeLast=0;collapsible=1;marginBottom=0;whiteSpace=wrap;html=1;" vertex="1" parent="1">
          <mxGeometry x="370" y="80" width="390" height="310" as="geometry" />
        </mxCell>
        <mxCell id="8BC_4oRkA2N3f7B9IZtx-6" value="&lt;div&gt;&lt;span style=&quot;background-color: initial;&quot;&gt;- ui:&amp;nbsp;&lt;/span&gt;&lt;span style=&quot;background-color: initial;&quot;&gt;Ui::TestCreatorWindow *&lt;/span&gt;&lt;br&gt;&lt;/div&gt;&lt;div&gt;- fileContent:&amp;nbsp;&lt;span style=&quot;background-color: initial;&quot;&gt;QStringList&lt;/span&gt;&lt;/div&gt;&lt;div&gt;- QuestionsContent:&amp;nbsp;&lt;span style=&quot;background-color: initial;&quot;&gt;QMap&amp;lt;QListWidgetItem*, QPair&amp;lt;QString, QString&amp;gt;&amp;gt;&lt;/span&gt;&lt;/div&gt;" style="text;strokeColor=none;fillColor=none;align=left;verticalAlign=top;spacingLeft=4;spacingRight=4;overflow=hidden;rotatable=0;points=[[0,0.5],[1,0.5]];portConstraint=eastwest;whiteSpace=wrap;html=1;" vertex="1" parent="8BC_4oRkA2N3f7B9IZtx-5">
          <mxGeometry y="26" width="390" height="64" as="geometry" />
        </mxCell>
        <mxCell id="8BC_4oRkA2N3f7B9IZtx-7" value="" style="line;strokeWidth=1;fillColor=none;align=left;verticalAlign=middle;spacingTop=-1;spacingLeft=3;spacingRight=3;rotatable=0;labelPosition=right;points=[];portConstraint=eastwest;strokeColor=inherit;" vertex="1" parent="8BC_4oRkA2N3f7B9IZtx-5">
          <mxGeometry y="90" width="390" height="8" as="geometry" />
        </mxCell>
        <mxCell id="8BC_4oRkA2N3f7B9IZtx-8" value="- setFileContent(QString fileName):&amp;nbsp;&lt;span style=&quot;background-color: initial;&quot;&gt;void&lt;/span&gt;&lt;div&gt;&lt;span style=&quot;background-color: initial;&quot;&gt;&lt;div&gt;+ explicit TestCreatorWindow(QWidget *parent = nullptr, QString fileName = &quot;&quot;): void&lt;/div&gt;&lt;div&gt;+~TestCreatorWindow(): void&lt;/div&gt;&lt;div&gt;&lt;br&gt;&lt;/div&gt;&lt;div&gt;-void on_Button_CreateStub_clicked(): void&lt;/div&gt;&lt;div&gt;- on_ButtonHalt_clicked(): void&lt;/div&gt;&lt;div&gt;- on_ButtonCreateQuestion_clicked(): void&lt;/div&gt;&lt;div&gt;- on_ButtonDeleteQuestion_clicked(): void&lt;/div&gt;&lt;div&gt;- on_questioncontent_textChanged(): void&lt;/div&gt;&lt;div&gt;- on_questionlist_currentItemChanged(QListWidgetItem *current, QListWidgetItem *previous): void&lt;/div&gt;&lt;div&gt;- on_questionTitle_textChanged(const QString &amp;amp;: voidarg1): void&lt;/div&gt;&lt;div&gt;- on_questionanswers_textChanged(): void&lt;/div&gt;&lt;/span&gt;&lt;/div&gt;" style="text;strokeColor=none;fillColor=none;align=left;verticalAlign=top;spacingLeft=4;spacingRight=4;overflow=hidden;rotatable=0;points=[[0,0.5],[1,0.5]];portConstraint=eastwest;whiteSpace=wrap;html=1;" vertex="1" parent="8BC_4oRkA2N3f7B9IZtx-5">
          <mxGeometry y="98" width="390" height="212" as="geometry" />
        </mxCell>
        <mxCell id="8BC_4oRkA2N3f7B9IZtx-14" value="" style="endArrow=diamondThin;endFill=0;endSize=24;html=1;rounded=0;entryX=1;entryY=0.5;entryDx=0;entryDy=0;exitX=0;exitY=0.5;exitDx=0;exitDy=0;" edge="1" parent="1" source="8BC_4oRkA2N3f7B9IZtx-8" target="8BC_4oRkA2N3f7B9IZtx-4">
          <mxGeometry width="160" relative="1" as="geometry">
            <mxPoint x="190" y="220" as="sourcePoint" />
            <mxPoint x="350" y="220" as="targetPoint" />
          </mxGeometry>
        </mxCell>
      </root>
    </mxGraphModel>
  </diagram>
</mxfile>
